# xmcd
#
# Track frame offsets:
#	150
#	13050
#	27230
#	42295
#	55975
#	72680
#	86540
#	103575
#	117680
#	137350
#	152015
#	163203
#	179183
#	195525
#	208810
#	226735
#	240158
#	258308
#	270530
#	288178
#
# Disc length: 4076
#
# Revision: 1
# Processed by: cddbd v1.5.1PL0 Copyright (c) Steve Scherf et al.
# Submitted via: audiograbber 1.82.02
# Normalized: r0:DSETVAR1
#
DISCID=1e0fea14
DTITLE=Various Artist - GoldDisc 2030
DYEAR=1990
DGENRE=Country
TTITLE0=Pam Tillis - Put Yourself In My Place
TTITLE1=Marty Stuart - Tempted
TTITLE2=Keith Whitley and Earl Thomas Conley - Brotherly Love
TTITLE3=Dwight Yoakam - Nothing's Changed Here
TTITLE4=Trisha Yearwood - Like We Never Had A Broken Heart
TTITLE5=Patty Loveless - Hurt Me Bad (In A Real Good Way)
TTITLE6=Alabama - Then Again
TTITLE7=Randy Travis - Forever Together
TTITLE8=Garth Brooks - Shameless
TTITLE9=Billy Dean - You Don't Count The Cost
TTITLE10=Davis Daniel - For Crying Out Loud
TTITLE11=George Strait - The Chill Of An Early Fall
TTITLE12=Reba McEntire - For My Broken Heart
TTITLE13=Little Texas - Some Guys Have All The Love
TTITLE14=Suzy Bogguss - Someday Soon
TTITLE15=Brooks and Dunn - My Next Broken Heart
TTITLE16=Vince Gill - Look At Us
TTITLE17=Restless Heart - You Can Depend On Me
TTITLE18=Collin Raye - Love, Me
TTITLE19=Steve Wariner - Leave Him Out Of This
EXTD=
EXTT0=
EXTT1=
EXTT2=
EXTT3=
EXTT4=
EXTT5=
EXTT6=
EXTT7=
EXTT8=
EXTT9=
EXTT10=
EXTT11=
EXTT12=
EXTT13=
EXTT14=
EXTT15=
EXTT16=
EXTT17=
EXTT18=
EXTT19=
PLAYORDER=
